<svg xmlns="http://www.w3.org/2000/svg" width="720" height="160" viewBox="0 0 720 160" role="img" aria-labelledby="title desc">
  <title id="title">Sumenep Buku Kerja — Jasa dekat, tanpa ribet.</title>
  <desc id="desc">Blue open-book location mark with the Sumenep Buku Kerja wordmark.</desc>
  <g transform="translate(16 16) scale(1.33)">
    <rect x="4" y="4" width="88" height="88" rx="22" fill="#2563EB"/>
    <path d="M18.5 28.5c8.6-3.4 17.2-2.5 25.5 3.2v35.1c-8.3-5.7-16.9-6.6-25.5-3.2V28.5Z" fill="#FFFFFF"/>
    <path d="M77.5 28.5c-8.6-3.4-17.2-2.5-25.5 3.2v35.1c8.3-5.7 16.9-6.6 25.5-3.2V28.5Z" fill="#DBEAFE"/>
    <path d="M48 32v35" stroke="#F59E0B" stroke-width="5" stroke-linecap="round"/>
    <path d="M70 15.5a8 8 0 0 0-8 8c0 6.1 8 13.5 8 13.5s8-7.4 8-13.5a8 8 0 0 0-8-8Z" fill="#F59E0B"/>
    <circle cx="70" cy="23.5" r="3" fill="#FFFFFF"/>
  </g>
  <g transform="translate(164 0)">
    <text x="0" y="67" fill="#0F172A" font-family="Inter, ui-sans-serif, system-ui, -apple-system, BlinkMacSystemFont, 'Segoe UI', sans-serif" font-size="34" font-weight="800" letter-spacing="-1.2">Sumenep <tspan fill="#2563EB">Buku</tspan> Kerja</text>
    <path d="M0 82H540" stroke="#2563EB" stroke-width="3"/>
    <text x="2" y="108" fill="#64748B" font-family="Inter, ui-sans-serif, system-ui, -apple-system, BlinkMacSystemFont, 'Segoe UI', sans-serif" font-size="17" font-weight="600" letter-spacing=".1">Jasa dekat, tanpa ribet.</text>
  </g>
  <path d="M164 126H704" stroke="#BFDBFE" stroke-width="2"/>
</svg>
